<?xml version="1.0" encoding="iso-8859-1"?>
<!-- Generator: Adobe Illustrator 19.0.0, SVG Export Plug-In . SVG Version: 6.00 Build 0)  -->
<svg version="1.1" id="Capa_1" xmlns="http://www.w3.org/2000/svg" xmlns:xlink="http://www.w3.org/1999/xlink" x="0px" y="0px"
	 viewBox="0 0 512 512" style="enable-background:new 0 0 512 512;" xml:space="preserve">
<circle style="fill:#F6B138;" cx="415.89" cy="173.971" r="48.706"/>
<path style="fill:#EDA024;" d="M438.418,206.939c-41.134,0-63.239-47.684-38.01-79.146c-19.308,6.47-33.226,24.693-33.226,46.179
	c0,45.997,58.054,66.183,86.716,30.44C449.033,206.042,443.832,206.939,438.418,206.939z"/>
<path style="fill:#F2D59F;" d="M511.088,378.104c-20.148-30.176-37.252-48.006-52.289-54.508v-0.001
	c-28.576-12.353-43.975,17.56-72.945,7.245c-16.217-5.775-33.93-22.916-55.744-53.944c-33.729-47.975-68.045-72.891-101.997-74.056
	c-51.02-1.741-90.439,47.616-122.116,86.684c-39.486,48.559-77.826,73.981-103.036,86.757c-5.062,2.565-3.233,10.246,2.448,10.246
	c531.93-1.159,503.017,2.626,505.951-2.862C512.302,381.904,512.198,379.766,511.088,378.104z"/>
<path style="fill:#EDBF77;" d="M249.694,330.897c-74.086-24.823-13.386-42.751,0-75.849c10.106-24.988-21.227-43.539-37.19-51.13
	c-44.021,7.539-78.702,51.319-106.506,85.607c-39.487,48.558-77.827,73.98-103.037,86.756c-5.062,2.565-3.233,10.246,2.448,10.246
	h276.918C292.151,375.498,306.317,349.869,249.694,330.897z"/>
<path style="fill:#DDA862;" d="M46.611,376.281c50.93-31.526,85.565-89.035,86.932-90.64c20.427-30.767,47.359-71.328,80.875-80.793
	c-0.656-0.324-1.3-0.638-1.914-0.93c-44.021,7.539-78.702,51.319-106.506,85.607c-39.487,48.558-77.827,73.98-103.037,86.756
	c-5.062,2.565-3.233,10.246,2.448,10.246h43.206C43.97,386.527,42.463,378.849,46.611,376.281z"/>
<g>
</g>
<g>
</g>
<g>
</g>
<g>
</g>
<g>
</g>
<g>
</g>
<g>
</g>
<g>
</g>
<g>
</g>
<g>
</g>
<g>
</g>
<g>
</g>
<g>
</g>
<g>
</g>
<g>
</g>
</svg>
